<svg xmlns="http://www.w3.org/2000/svg" width="314.3" height="64.5" viewBox="0 0 314.3 64.5"><path fill="#B4965A" d="M26.3 45c-5 1.5-11.2 4-12.9 9.6-.7 3 .2 5.9 2.6 7.8 2.6 2.1 6.7 2.9 9.6 1.4 1.7-.9 3.3-2.3 4-4.5l-.1-.1c-1.9 1.3-4.9 1.3-6.7-.1-1.6-1.3-2.4-3-2.4-5 .3-3.8 4.4-6.7 7.7-7.7 1.1-.3 2.3-.6 3.6-.6-.8 3.8-3.9 7.3-7.3 9.4v.1c2.2.7 4.7.3 6.8-.3.6 2.5 1.4 5.5 2.8 8.4 1.4-2.9 2.3-5.9 2.8-8.4 2.1.5 4.7 1 6.9.3v-.1c-3.4-2.1-6.5-5.7-7.3-9.4 1.3.1 2.5.3 3.6.6 3.3 1 7.4 3.8 7.7 7.7.1 2-.8 3.7-2.4 5-1.9 1.3-4.8 1.4-6.7.1l-.1.1c.6 2.2 2.2 3.6 4 4.5 2.9 1.4 7 .6 9.6-1.4 2.4-1.9 3.4-4.8 2.6-7.8C53 49 46.8 46.5 41.8 45c7.8-.7 15.2-2.8 20.9-8.4 4.2-4.5 7-10.9 4.5-17.1-1.5-4.2-5.8-6.9-10.1-7.3-6.4-.6-11.9 4-14.5 9.4-.5 1.1-.9 2.2-1.2 3.5 3.7-3.3 8-6.2 13.3-5 2.4.6 4.7 2.5 5.4 5 1.1 4.6-.7 8.8-4.1 12-4.9 4.1-11 5.7-17.3 6.2.2-3.4 1-6.5 3.1-9 1.5-1.7 3.3-2.7 5.6-2.5 1.5.2 4.5 2.8.9 6.3l.1.1c3.3-.5 6.7-3.2 7.6-6.5 1-4.1-2.6-9.4-8.1-7.5-7.9 2.9-10.7 11.4-11.2 19.1 0 .2-.7.3-.8.1-1.8-8.9 2.6-16.1 4.5-23.9C42.1 12.1 38 6 34.2 0c-3.8 6-7.9 12.1-6.4 19.7 1.8 7.8 6.3 15 4.5 23.9-.1.2-.8.1-.8-.1-.4-7.7-3.2-16.2-11.2-19.1-5.5-1.9-9.2 3.4-8.1 7.5.9 3.3 4.3 6 7.6 6.5l.1-.1c-3.6-3.5-.6-6.1.9-6.3 2.2-.2 4.1.8 5.6 2.5 2.1 2.5 3 5.6 3.1 9-6.3-.5-12.4-2.1-17.3-6.2-3.4-3.2-5.2-7.4-4.1-12 .6-2.5 3-4.5 5.4-5 5.3-1.2 9.6 1.7 13.3 5-.3-1.4-.7-2.4-1.2-3.5-2.7-5.4-8.1-10-14.5-9.4-4.3.3-8.6 3-10.1 7.3-2.5 6.2.3 12.6 4.5 17.1 5.6 5.4 13 7.5 20.8 8.2"/><path fill="#455560" d="M150 46.2c.9-.4 2.5-1.7 3.2-3.6.4-1.3.3-2.6-.3-3.8-.8-1.6-2.6-2-4.4-2.4-2.1-.5-4.2-1-4.2-3.5 0-1 .4-1.7 1.1-2.2 1.3-.9 3.2-.8 4.4-.3.8.3 1 1.1 1.1 1.7.1.3.1.5.2.7.1.3.3.3.5.3h.2V33c.2-.9.3-1.7.4-2.6l.1-.8v-.1h-.1c-2.7-1-7.4-1.4-9.2 1.8-.5.8-1.1 2.5-.5 4.2.9 2.1 2.9 2.6 4.7 3.1 1.5.4 3 .8 3.6 2 .5 1 .4 2.4-.2 3.4-.7 1.1-1.7 1.7-3 1.7-1.9 0-3.5-.8-4-1.5-.3-.5-.4-1-.5-1.5-.1-.4-.1-.6-.3-.6h-.5V46.4h.1c3.2.7 5.7.6 7.6-.2M80.1 29.7c.6.1 1.6.2 1.6.8V45c0 .6-1 .7-1.7.8h-.2s0 .7 0 .7H86v-.6h-.1l-.3-.1c-.9-.1-1.5-.3-1.5-.8 0-.1 0-13.9 0-14.5.1-.1.4-.2 1.3-.3 1.3-.1 3.2 0 3.9.9.9 1 1 2.5.2 3.8-.7 1.2-2.5 2-4.5 2.1h-.2s4 5.6 7 9.5H95.1v-.7H95l-.6-.2c-1.4-1-3.3-3.5-5.2-6l-1.4-1.9c.6-.2 2.5-.9 3.5-2 1.5-1.7 1.2-3.8.7-4.7-1.5-2.5-4.4-2.3-7.5-2-1.5 0-3.1.2-4.6 0h-.1v.7s.3 0 .3 0M95.1 29.7c.6.1 1.6.2 1.6.7V45c0 .1-.1.3-.2.4-.2.2-.6.4-.9.4h-.1v.7h.1c3.4-.1 7-.2 10 .1.2 0 .4 0 .6-.2.4-.4.4-1.3.4-2.5 0-.3 0-.7 0-1v-.1h-.7V43.1c-.2.8-.3 1.3-1.3 1.6-1.1.3-4 .4-5.5-.1v-6.5h4.8c.5 0 .7.7.9 1.2v.2s.1 0 .1 0h.5v-.1s-.1-1.3-.1-2.1.1-2.2.1-2.2V35h-.6v.1c0 .1 0 .1-.1.2-.1.5-.4 1.2-.8 1.2h-4.7v-5.9c.6 0 3.6-.2 4.7 0 1.2.2 1.3.9 1.3 1.6v.1h.7V29.5c0-.3-.2-.4-.4-.5-1.3 0-2.6 0-3.8.1-2.2.1-4.4.1-6.7-.1h-.1v.7h.1s0 0 .1 0M140.2 46.5h.1v-.7h-.1c-.1 0-.3 0-.4 0-.6-.1-1.3-.1-1.4-.8V30.5c.1-.6.7-.7 1.4-.8.2 0 .3 0 .4-.1h.1V29h-6.1v.7h.1c.1 0 .3 0 .4.1.6.1 1.3.1 1.4.8v14.5c-.1.6-.7.7-1.4.8-.1 0-.3 0-.4 0h-.1v.7h6zM110 30.5V45c-.1.5-.5.6-1.3.8h-.1v.7H119.5v-.7h-.1c-.2 0-.7-.1-.9-.4-.1-.1-.1-.2 0-.4.4-1.1 1.6-3.8 2.7-6h6l2.4 6.1c0 .1 0 .2 0 .3-.1.2-.5.4-.8.4h-.1v.6H133.5v-.6h-.1c-.5 0-.8-.2-1.1-.7-.8-1.7-4.7-11.3-6.9-16.8l-.1-.2-.1.2-7.6 14.8s-.2.3-.2.3c-.6.9-.9 1.5-1.8 1.5 0 0-2.7 0-2.7 0-.2 0-.8 0-.8-.2V30.5c0-.6.9-.7 1.6-.8H114s0-.1 0-.1V29h-5.6v.7h.1c.5.1 1.5.2 1.5.8m16.5 6.7h-4.2l.1-.3c.7-1.5 1.4-2.9 2.2-4.6.6 1.5 1.2 3 1.9 4.9M165.1 46.7c1.9.6 3.9.1 6.3-1.6.2-.1.3-.2.4-.2.1-.1.1-.1.2-.2.1 0 .1.1.2.1.5.3 1.3.8 2.3 1.3 1.6.9 2.7 0 3.6-.7.3-.2.5-.4.8-.6h.1V44.2l-.2.1c-1.8.8-3.5-.3-5.1-1.6.8-1.2 1.4-2.9 1.6-4.5l2.9.1h.1v-.1l.1-1.3v-.1H171.7l-.8 1.1-.2.2h.3c.9-.1 1.9.5 2.3 1.4.3 1 .1 2-.5 2.7-2.8-2.2-4.8-4.4-6.1-6.8.4-.4.8-.8 1.3-1.1 1.4-1.1 2.9-2.3 2.4-4.2-.2-.6-.9-.9-1.2-1.1-.6-.3-1.3-.4-1.6-.3-1.6.7-2.9 1.8-3.6 3-.6 1.3-.1 2.9.5 4.4-.3.3-.6.6-.9.9-.9.8-1.9 1.7-2.3 2.8-.5 1.3-.4 2.6.2 3.9.6 1.4 2 2.6 3.6 3m2.5-13.2s-.9.7-1.2 1c-.5-.5-.9-1.8-.7-2.9.1-.5.4-1.1 1.1-1.3.3-.1.8-.1 1.2.1.3.2.5.4.5.7.1 1-.4 1.9-.9 2.4m-2.8 3.8c.6.7 1.2 1.4 1.9 2.2 1.3 1.6 2.7 3.2 4.4 4.6-.7.9-2.2 1.1-4.4.7-1.4-.4-2.9-1.6-3.5-2.9-.8-2.1 1.2-4.2 1.6-4.6M288.9 29h-.1v.7h.1c.1 0 .3 0 .4 0 .6.1 1 .1 1.2.8v11c0 3.3-2.8 4-5.2 4-2.3 0-4.8-1-4.8-3.9v-11c.1-.7.5-.7 1.1-.8.1 0 .3 0 .4 0h.1V29H276.6v.7h.1c.1 0 .3 0 .4 0 .6.1 1.1.1 1.2.8v11.4c0 3.3 2.2 5 6.6 5 6.4 0 7.1-3.6 7.1-5.1V30.6c.1-.7.6-.7 1.2-.8.1 0 .3 0 .4 0h.1V29h-4.8zM234.3 45.2c-.9-1.8-5.1-12.3-6.9-16.8l-.1-.2-.1.2-7.6 14.8c-.2.3-.3.6-.5.9-.5.9-.9 1.7-1.6 1.8-.8 0-1.6 0-1.8-.8V30.6c.1-.6.7-.7 1.4-.8.2 0 .3 0 .4 0h.1V29h-6.1v.7h.1c.1 0 .3 0 .4 0 .6.1 1.3.1 1.4.8v5.8h-9.7v-5.8c.1-.6.7-.7 1.4-.8.1 0 .3 0 .4 0h.1V29H199.4v.7h.1c.1 0 .3 0 .4 0 .6.1 1.3.1 1.4.8V45c-.1.6-.7.7-1.4.8-.1 0-.3 0-.4 0h-.1v.7h6.1v-.7h-.1c-.1 0-.3 0-.4 0-.6-.1-1.2-.1-1.4-.8v-7.2h9.7V45c-.1.6-.7.7-1.4.8-.2 0-.3 0-.4 0h-.1v.7h10v-.6h-.1c-.2 0-.7-.1-.9-.4-.1-.1-.1-.2 0-.4.2-.6 1.5-3.6 2.7-6h6l2.3 6.2c0 .1 0 .2 0 .3-.1.2-.5.4-.8.4h-.1v.5H235.4v-.6h-.1c-.5 0-.8-.3-1-.7M224.2 37c.7-1.5 1.4-2.9 2.2-4.6.6 1.4 1.2 3 1.9 4.9h-4.2l.1-.3zM276 45.2c-.6-1.3-3-6.9-6.9-16.8l-.1-.2-.1.2-7.6 14.8s-.2.3-.2.3c-.5.8-.8 1.3-1.8 1.5-1.6.2-5.5.2-7-.2v-6.5h4.7c.5 0 .7.7.9 1.2l.1.2v.1h.6v-.1s-.1-1.3-.1-2.1.1-2.2.1-2.2v-.1h-.6v.1c0 .1 0 .1-.1.2-.1.5-.4 1.2-.9 1.2h-4.7v-5.9c.6 0 3.6-.2 4.7 0 1.2.2 1.3.9 1.3 1.6v.1h.7V29.8c0-.3-.3-.4-.4-.5-1.3 0-2.5 0-3.7.1-2.2.1-4.5.1-6.8-.1h-.1v.7h.1c.1 0 .1 0 .2 0 .6.1 1.6.2 1.6.7v14.5c0 .1-.1.3-.2.4-.2.2-.6.4-.9.4h-.1v.7h.1c3.2-.1 6.9-.1 10 0h4.3V45.9h-.1c-.2 0-.7-.1-.9-.4-.1-.1-.1-.2 0-.4 1.3-3 2.2-4.9 2.7-6h6l2.3 6.2c0 .1 0 .2 0 .3-.1.2-.5.4-.7.4h-.1v.5H277.2v-.6h-.1c-.5 0-.8-.3-1.1-.7m-9.9-8.3c.7-1.4 1.3-2.8 2.2-4.5.6 1.6 1.2 3.1 1.9 4.9H266l.1-.4zM190.1 28.9c-2.9.5-5.1 2-6.4 4.2-1.9 3.2-1.5 8.2 1 10.8 3.7 4 9.6 3 12 2.4.8-.2 1-.8 1.2-1.4v-.2l-.2.1-.2.1c-2.1.6-3.9 1.2-6.4.7-2.8-.5-4.8-2.9-5.6-5.1-1.1-3.1-.5-6.7 1.5-8.8 2.4-2.3 6.2-2.1 8.9-1.2.6.2.7.7.8 1.3.1.5.2 1.1.8 1.3.3.1.4 0 .4 0l.1-3.4v-.1h-.1c-2.7-.9-5.4-1.1-7.8-.7M247.5 29v-.1h-.1c-2.1.2-4.5.2-7.1.2-2.6 0-5-.1-7.1-.2h-.1v.1l-.1 2.8v.1h.6v-.1c.2-.8.6-1.2 1.4-1.2 2.8-.1 3.8 0 4.1 0V45c-.1.6-.7.7-1.4.8-.1 0-.3 0-.4 0h-.1v.7h6.1v-.7h-.1c-.1 0-.3 0-.4 0-.6-.1-1.3-.1-1.4-.8V30.6c.3 0 1.4-.1 4.2 0 .7 0 1.2.4 1.4 1.2v.1h.6v-.1l-.1-2.8zM308.5 46.1c-.1-.1-.2-.1-.3-.2-.2 0-.4-.1-.5-.3-2.5-3.9-3.5-5.4-5.3-8.7l1.1-1.6c1.2-1.8 2.4-3.6 3.9-5.6 0-.1.2-.1.4-.1s.4 0 .5-.2c.1-.1 0-.3-.1-.4v-.1H305.8v.1l-.4.7c-1.3 2.1-2.5 4.1-3.9 5.8-.4-.7-.8-1.4-1.1-2.1-.5-1-1.1-2.1-1.8-3.2-.8-1.2-2.3-1.7-4.1-1.2h-.1v.1l-.1.5v.1h.1c.5.1.9.1 1.7 1 1 1.3 2.3 3.7 3.7 6.2l.4.7c-1.6 2.5-3.3 4.7-5 7.1l-1.2 1.7-.1.2h1.8v-.1l1.3-2c1.3-1.9 2.5-3.7 3.9-5.5 1 1.4 1.9 2.9 2.7 4.3.6 1 1.2 2 1.9 3.1v.1h3v-.1c.1 0 .1-.2 0-.3M309.7 44.5c0 1.3 1 2.3 2.3 2.3 1.3 0 2.3-1 2.3-2.3 0-1.3-1-2.3-2.3-2.3-1.3 0-2.3 1-2.3 2.3m.4 0c0-1 .8-1.8 1.8-1.8s1.8.8 1.8 1.8-.8 1.8-1.8 1.8-1.8-.8-1.8-1.8"/><path fill="#455560" d="M311.3 43.6h.9c.2 0 .5 0 .5.4s-.3.4-.5.4h-.8v-.8zm0 1.1h.8c.4 0 .5.2.5.5 0 .1 0 .5.1.6h.4v-.1c-.1-.1-.1-.1-.1-.3v-.5c0-.4-.2-.4-.3-.5.2-.1.4-.2.4-.6 0-.5-.4-.7-.8-.7H311v2.6h.3v-1z"/></svg>