<svg xmlns="http://www.w3.org/2000/svg" width="37.5" height="40.538" viewBox="-31.25 14.675 37.5 40.538"><path fill="#455560" d="M-2.188 41.487H6.25v.375h-8.438z"/><path fill="#B4975A" d="M-16.062 35.038c-2.25.637-4.987 1.8-5.775 4.312-.337 1.35.075 2.625 1.2 3.525 1.163.938 3 1.275 4.312.638.788-.375 1.5-1.05 1.763-2.025l-.038-.038c-.862.6-2.175.562-3-.038-.675-.562-1.125-1.35-1.05-2.212.15-1.725 1.987-3 3.45-3.413.525-.15 1.05-.263 1.613-.263-.337 1.725-1.763 3.3-3.3 4.238v.038c.975.338 2.138.15 3.075-.15.225 1.125.638 2.475 1.237 3.788.638-1.275 1.013-2.7 1.275-3.788.975.225 2.1.45 3.075.15v-.037c-1.538-.975-2.925-2.55-3.3-4.238.6.038 1.163.15 1.612.263 1.5.413 3.337 1.725 3.45 3.413.038.863-.375 1.65-1.05 2.213-.825.6-2.175.6-3 .038l-.037.038c.262.975 1.012 1.613 1.762 2.025 1.35.637 3.15.262 4.312-.638 1.05-.825 1.538-2.175 1.2-3.525-.712-2.475-3.488-3.6-5.663-4.312C-5.412 34.7-2.074 33.8.44 31.25c1.875-2.025 3.15-4.913 2.025-7.688-.675-1.875-2.587-3.075-4.538-3.3C-4.925 20-7.4 22.062-8.6 24.5c-.225.525-.375.975-.525 1.575 1.65-1.5 3.6-2.812 5.962-2.213 1.05.225 2.138 1.163 2.4 2.25.525 2.1-.337 3.975-1.837 5.4-2.212 1.837-4.95 2.55-7.762 2.775.075-1.538.45-2.925 1.387-4.013.675-.788 1.5-1.237 2.475-1.125.675.074 2.025 1.237.375 2.81l.038.04c1.5-.225 3-1.425 3.413-2.925.45-1.838-1.163-4.238-3.638-3.375-3.562 1.275-4.8 5.137-4.987 8.587 0 .075-.337.15-.374.038-.825-3.975 1.2-7.2 1.987-10.763.675-3.413-1.163-6.188-2.85-8.888-1.725 2.7-3.562 5.438-2.85 8.888.825 3.525 2.812 6.75 1.988 10.763-.037.075-.374.037-.374-.038-.188-3.45-1.5-7.312-4.988-8.587-2.438-.863-4.125 1.537-3.637 3.375.414 1.5 1.95 2.7 3.414 2.925l.037-.038c-1.61-1.575-.26-2.775.376-2.812 1.013-.075 1.8.375 2.475 1.125.976 1.125 1.35 2.475 1.39 4.013-2.85-.225-5.55-.975-7.764-2.775-1.538-1.425-2.362-3.338-1.837-5.4.262-1.125 1.35-2.025 2.4-2.25 2.362-.562 4.31.75 5.96 2.213-.15-.6-.336-1.05-.524-1.575-1.2-2.4-3.637-4.537-6.525-4.236-1.874.188-3.824 1.387-4.5 3.3-1.124 2.775.15 5.663 2.026 7.688 2.586 2.548 5.924 3.485 9.412 3.786"/><path fill="#455560" d="M-31.25 41.487h8.438v.375h-8.438zM-7.812 49.1c-.525 0-.938-.188-1.05-.375-.15-.225-.15-.525-.188-.525h-.075v1.05c.6.15 1.35.225 1.95-.038.375-.188 1.2-.938.675-1.837-.45-.862-2.175-.337-2.175-1.538 0-.788.938-.862 1.5-.675.337.15.262.45.375.6.037.038.037.038.075.038.038-.262.075-.562.15-.862-.75-.263-1.837-.337-2.325.45-.15.337-.263.675-.15 1.012.375.975 1.762.6 2.137 1.275.263.6-.15 1.425-.9 1.425M-23.6 49.138c-.225-.038-.525-.038-.525-.225 0 0 0-3.6 0-3.712 0-.074 1.013-.224 1.388.15.262.263.225.676.037 1.013-.188.263-.637.525-1.2.562.6.863.975 1.388 1.762 2.363h.825v-.15l-.15-.038c-.45-.337-1.163-1.275-1.725-2.1 0 0 .6-.188.938-.525.375-.413.337-.938.188-1.163-.562-.938-1.95-.337-3.038-.45v.15c.188 0 .525.037.525.225v3.713c0 .188-.337.225-.525.225v.15h1.538v-.188h-.038zM-18.987 45.237c.337.038.375.225.375.413h.112v-.675c0-.038-.075-.075-.075-.075-.862 0-1.8.075-2.7 0v.15c.15 0 .45.038.45.225v3.712c0 .075-.188.225-.337.225v.15c.788-.037 1.763-.037 2.55.038.262 0 .188-.45.225-.938h-.113c-.038.225-.038.413-.375.525-.337.075-1.05.075-1.425-.037v-1.725h1.237c.188 0 .225.225.263.375h.075s-.038-.337-.038-.525.038-.562.038-.562h-.075c-.038.075-.075.375-.263.375h-1.163v-1.575c0-.076.938-.188 1.24-.076M-9.725 44.975v-.15h-1.538v.15c.188.038.45 0 .525.225v3.712c-.038.225-.338.188-.525.225v.15h1.538v-.15c-.188-.038-.45 0-.525-.225V45.2c.112-.225.337-.225.525-.225M-.725 53.862v-2.85c.038-.226.225-.188.413-.226v-.15h-1.163v.15c.188.038.375 0 .413.226v2.812c0 .75-.525 1.05-1.35 1.05-.637 0-1.237-.338-1.237-1.013v-2.81c.04-.225.226-.188.414-.225v-.15h-1.35v.15c.188.037.413 0 .413.225v2.925c0 .6.262 1.238 1.65 1.238 1.348-.075 1.798-.75 1.798-1.35M-12.575 49.138v.112h1.163v-.075c-.15 0-.225-.037-.262-.188-.188-.412-1.125-2.7-1.763-4.312l-1.95 3.75c-.188.263-.262.45-.525.45 0 0-.6 0-.675 0-.075 0-.225 0-.225-.075v-3.6c0-.188.263-.225.525-.225v-.15h-1.387v.15c.15 0 .375.038.375.225v3.675c-.037.15-.15.188-.374.225v.15h2.737v-.15s-.337-.038-.225-.225c.075-.188.413-.938.675-1.575h1.575l.6 1.575c0 .187-.15.263-.263.263M-14.337 47c.225-.45.413-.825.637-1.35.188.413.338.825.525 1.35h-1.162zM-16.362 54.95v.075h1.2v-.075c-.15 0-.225-.038-.262-.188-.188-.413-1.125-2.7-1.763-4.312l-1.95 3.787c-.188.263-.262.675-.562.675-.187 0-.45 0-.524-.225v-3.713c.038-.225.337-.188.525-.225v-.15h-1.536v.15c.188.037.45 0 .525.225v1.538h-2.55v-1.538c.037-.225.337-.188.524-.225v-.15h-1.538v.15c.188.037.45 0 .525.225v3.713c-.037.225-.336.188-.524.225v.15h1.538v-.15c-.188-.037-.45 0-.525-.225v-1.875h2.55v1.875c-.04.225-.338.188-.526.225v.15h2.475v-.15s-.338-.037-.226-.225c.075-.188.412-.938.675-1.575h1.574l.6 1.575c.036.15-.076.262-.226.262m-1.725-2.175c.225-.45.413-.825.637-1.35.188.412.338.824.525 1.35h-1.162zM-8.075 54.95s-.337-.038-.225-.226c.075-.188.412-.938.675-1.574h1.575l.6 1.574c.038.15-.075.188-.225.226v.075h1.2v-.075c-.15 0-.225-.038-.262-.188-.188-.413-1.125-2.7-1.763-4.312l-1.95 3.787c-.188.263-.225.413-.525.45-.413.037-1.425.037-1.837-.037v-1.726h1.237c.188 0 .225.226.263.375h.075s-.038-.338-.038-.525.038-.562.038-.562h-.075c-.038.15-.075.375-.263.375h-1.237v-1.575s.938-.038 1.237 0c.338.037.375.224.375.412h.15v-.75c0-.037-.075-.075-.075-.075-.862 0-1.8.075-2.7 0v.15c.15 0 .45.037.45.225v3.713c0 .075-.188.225-.337.225v.15c.825-.037 1.762-.037 2.55 0h1.087v-.113zm1.312-3.525c.188.413.338.825.525 1.35H-7.4c.188-.488.375-.863.637-1.35M-2.038 45.125c-.074-.225-.562-.413-.674-.375-.338.15-.676.413-.938.75-.15.337 0 .788.15 1.125-.337.337-.675.562-.825.938-.338.787.338 1.537.975 1.725.6.188 1.163-.075 1.575-.413.075-.038.15-.075.188-.075.075.038.337.225.637.375.525.263.788-.15 1.125-.337v-.075c-.525.225-1.012-.15-1.35-.413.188-.263.375-.75.412-1.2l.788.038.038-.337h-1.65l-.225.263c.225-.037.525.15.6.375.075.263 0 .562-.15.75-.562-.45-1.2-1.012-1.575-1.762.337-.376 1.087-.676.9-1.35m.262 3.562c-.225.337-.787.262-1.163.187s-.75-.413-.938-.75c-.263-.6.413-1.237.413-1.237.6.562 1.05 1.237 1.688 1.8m-1.238-2.4c-.225-.188-.375-.975.075-1.163.188-.075.45.038.45.225.037.225-.075.525-.225.637l-.3.3zM-25.175 50.9c.337.074.075.562.412.637.038 0 .075 0 .075 0v-.862c-1.237-.337-2.85-.262-3.6.938-.45.788-.375 2.025.263 2.737.75.825 1.987.863 3 .6.188-.037.225-.187.262-.337-.562.188-1.012.338-1.725.188-.675-.148-1.238-.674-1.425-1.35-.262-.75-.188-1.725.375-2.25.638-.525 1.613-.525 2.363-.3M-13.625 54.688v-3.713s.188-.037 1.125 0c.188 0 .337.15.375.338h.075l-.038-.675c-.6.037-1.2.037-1.8.037-.6 0-1.2 0-1.8-.037l-.038.675h.075c.037-.225.187-.338.374-.338.862-.037 1.125 0 1.125 0v3.713c0 .225-.264.188-.45.225v.15h1.5v-.15c-.225-.038-.487.037-.525-.225M3.288 54.875c-.638-.975-.863-1.388-1.388-2.213.413-.637.788-1.2 1.275-1.837.038-.075.263 0 .188-.15h-.526c-.375.6-.75 1.2-1.163 1.726-.225-.412-.45-.937-.75-1.387-.187-.263-.562-.413-1.01-.338v.15c.15 0 .224.037.45.263.262.375.637 1.125 1.05 1.8-.526.787-1.014 1.5-1.576 2.25h.375c.45-.675.863-1.35 1.35-1.95.45.6.788 1.275 1.2 1.95h.75c.037-.263-.15-.113-.225-.263M3.812 54.537c0 .338.225.562.562.562s.562-.226.562-.563c0-.337-.225-.562-.562-.562-.3 0-.562.262-.562.562m.076 0c0-.262.225-.524.525-.524.262 0 .525.225.525.524 0 .3-.225.525-.525.525-.338-.037-.525-.262-.525-.525"/><path fill="#455560" d="M4.225 54.275h.225c.037 0 .15 0 .15.074s-.038.074-.15.074h-.187v-.188l-.038.04zm0 .337h.225c.075 0 .075.038.075.075s0 .15 0 .15H4.6c-.038 0-.038-.038-.038-.038v-.113c0-.075-.038-.075-.075-.15.038-.037.075-.037.075-.15 0-.15-.075-.187-.225-.187h-.262v.675h.075v-.263h.075z"/></svg>