<svg xmlns="http://www.w3.org/2000/svg" width="124" height="134" viewBox="-62 -27.1 124 134"><path fill="#455560" d="M34.1 61.6H62v1.2H34.1z"/><path fill="#B4975A" d="M-11.8 40.2c-7.4 2.1-16.5 6-19.1 14.3-1.1 4.5.2 8.7 4 11.7 3.8 3.1 9.9 4.2 14.3 2.1 2.6-1.2 5-3.5 5.8-6.7l-.1-.1c-2.9 2-7.2 1.9-9.9-.1-2.2-1.9-3.7-4.5-3.5-7.3.5-5.7 6.6-9.9 11.4-11.3 1.7-.5 3.5-.9 5.3-.9-1.1 5.7-5.8 10.9-10.9 14v.1c3.2 1.1 7.1.5 10.2-.5.7 3.7 2.1 8.2 4.1 12.5 2.1-4.2 3.3-8.9 4.2-12.5 3.2.7 6.9 1.5 10.2.5v-.1c-5.1-3.2-9.7-8.4-10.9-14 2 .1 3.8.5 5.3.9 5 1.4 11 5.7 11.4 11.3.1 2.9-1.2 5.5-3.5 7.3-2.7 2-7.2 2-9.9.1l-.1.1c.9 3.2 3.3 5.3 5.8 6.7 4.5 2.1 10.4.9 14.3-2.1 3.5-2.7 5.1-7.2 4-11.7-2.5-8.2-11.6-11.9-18.8-14.3 11.7-1.1 22.7-4.1 31-12.5C49 21 53.2 11.5 49.5 2.3c-2.2-6.2-8.6-10.2-15-10.9-9.4-.9-17.6 6-21.6 14-.7 1.7-1.2 3.2-1.7 5.2 5.5-5 11.9-9.3 19.7-7.3 3.5.7 7.1 3.8 7.9 7.4 1.7 6.9-1.1 13.1-6.1 17.9C25.4 34.7 16.3 37 7 37.8c.2-5.1 1.5-9.7 4.6-13.3 2.2-2.6 5-4.1 8.2-3.7 2.2.2 6.7 4.1 1.2 9.3l.1.1c5-.7 9.9-4.7 11.3-9.7 1.5-6.1-3.8-14-12-11.2C8.7 13.6 4.6 26.3 4 37.8c0 .2-1.1.5-1.2.1C0 24.7 6.7 14.1 9.3 2.3 11.5-9 5.5-18.2-.1-27.1c-5.7 8.9-11.8 18-9.4 29.4C-6.8 13.9-.2 24.6-3 37.9c-.1.2-1.2.1-1.2-.1-.6-11.4-5-24.2-16.5-28.4-8.1-2.9-13.6 5.1-12 11.2 1.4 5 6.4 8.9 11.3 9.7l.1-.1c-5.3-5.2-.9-9.2 1.2-9.3 3.3-.2 6 1.2 8.2 3.7 3.2 3.7 4.5 8.2 4.6 13.3-9.4-.7-18.4-3.2-25.7-9.2-5.1-4.7-7.8-11-6.1-17.9.9-3.7 4.5-6.7 7.9-7.4 7.8-1.9 14.3 2.5 19.7 7.3-.5-2-1.1-3.5-1.7-5.2-4-7.9-12-15-21.6-14C-40.9-8-47.4-4-49.6 2.3c-3.7 9.2.5 18.7 6.7 25.4 8.6 8.4 19.6 11.5 31.1 12.5"/><path fill="#455560" d="M-62 61.6h27.9v1.2H-62zM15.5 86.7c-1.7 0-3.1-.6-3.5-1.2-.5-.7-.5-1.7-.6-1.7h-.2v3.5c2 .5 4.5.7 6.4-.1 1.2-.6 4-3.1 2.2-6.1-1.5-2.9-7.2-1.1-7.2-5.1 0-2.6 3.1-2.9 5-2.2 1.1.5.9 1.5 1.2 2 .1.1.1.1.2.1.1-.9.2-1.9.5-2.9-2.5-.9-6.1-1.1-7.7 1.5-.5 1.1-.9 2.2-.5 3.3 1.2 3.2 5.8 2 7.1 4.2.9 2-.4 4.7-2.9 4.7M-36.7 86.9c-.7-.1-1.7-.1-1.7-.7 0 0 0-11.9 0-12.3 0-.2 3.3-.7 4.6.5.9.9.7 2.2.1 3.3-.6.9-2.1 1.7-4 1.9 2 2.9 3.2 4.6 5.8 7.8h2.7v-.5l-.5-.1c-1.5-1.1-3.8-4.2-5.7-6.9 0 0 2-.6 3.1-1.7 1.2-1.4 1.1-3.1.6-3.8-1.9-3.1-6.4-1.1-10-1.5v.5c.6 0 1.7.1 1.7.7v12.3c0 .6-1.1.7-1.7.7v.5h5.1V87c0-.1-.1-.1-.1-.1zM-21.5 74c1.1.1 1.2.7 1.2 1.4h.4v-2.2c0-.1-.2-.2-.2-.2-2.9 0-6 .2-8.9 0v.5c.5 0 1.5.1 1.5.7v12.3c0 .2-.6.7-1.1.7v.5c2.6-.1 5.8-.1 8.4.1.9 0 .6-1.5.7-3.1h-.4c-.1.7-.1 1.4-1.2 1.7-1.1.2-3.5.2-4.7-.1v-5.7h4.1c.6 0 .7.7.9 1.2h.2s-.1-1.1-.1-1.7c0-.6.1-1.9.1-1.9h-.2c-.1.2-.2 1.2-.9 1.2h-3.8v-5.2c0-.2 3.1-.6 4-.2M9.2 73.1v-.5H4.1v.5c.6.1 1.5 0 1.7.7v12.3c-.1.7-1.1.6-1.7.7v.5h5.1v-.5c-.6-.1-1.5 0-1.7-.7V73.8c.3-.7 1.1-.7 1.7-.7M38.9 102.5v-9.4c.1-.7.7-.6 1.4-.7v-.5h-3.8v.5c.6.1 1.2 0 1.4.7v9.3c0 2.5-1.7 3.5-4.5 3.5-2.1 0-4.1-1.1-4.1-3.3v-9.3c.1-.7.7-.6 1.4-.7v-.5h-4.5v.5c.6.1 1.4 0 1.4.7v9.7c0 2 .9 4.1 5.5 4.1 4.3-.4 5.8-2.6 5.8-4.6M-.2 86.9v.4h3.8V87c-.5 0-.7-.1-.9-.6-.6-1.4-3.7-9-5.8-14.3l-6.4 12.4c-.6.9-.9 1.5-1.7 1.5 0 0-2 0-2.2 0s-.7 0-.7-.2v-12c0-.6.9-.7 1.7-.7v-.5H-17v.5c.5 0 1.2.1 1.2.7V86c-.1.5-.5.6-1.2.7v.5h9.1v-.5s-1.1-.1-.7-.7c.2-.6 1.4-3.1 2.2-5.2h5.2l2 5.2c-.2.6-.7.9-1 .9m-5.9-7.1c.7-1.5 1.4-2.7 2.1-4.5.6 1.4 1.1 2.7 1.7 4.5h-3.8zM-12.8 106.1v.2h4v-.2c-.5 0-.7-.1-.9-.6-.6-1.4-3.7-8.9-5.8-14.3l-6.4 12.5c-.6.9-.9 2.2-1.9 2.2-.6 0-1.5 0-1.7-.7V92.9c.1-.7 1.1-.6 1.7-.7v-.5h-5.1v.5c.6.1 1.5 0 1.7.7V98h-8.4v-5.1c.1-.7 1.1-.6 1.7-.7v-.5H-39v.5c.6.1 1.5 0 1.7.7v12.3c-.1.7-1.1.6-1.7.7v.5h5.1v-.4c-.6-.1-1.5 0-1.7-.7V99h8.4v6.2c-.1.7-1.1.6-1.7.7v.5h8.2v-.4s-1.1-.1-.7-.7c.2-.6 1.4-3.1 2.2-5.2h5.2l2 5.2c.1.4-.3.8-.8.8m-5.7-7.2c.7-1.5 1.4-2.7 2.1-4.5.6 1.4 1.1 2.7 1.7 4.5h-3.8zM14.6 106.1s-1.1-.1-.7-.7c.2-.6 1.4-3.1 2.2-5.2h5.2l2 5.2c.1.5-.2.6-.7.7v.2h4v-.2c-.5 0-.7-.1-.9-.6-.6-1.4-3.7-8.9-5.8-14.3l-6.4 12.5c-.6.9-.7 1.4-1.7 1.5-1.4.1-4.7.1-6.1-.1v-5.7h4.1c.6 0 .7.7.9 1.2h.2s-.1-1.1-.1-1.7.1-1.9.1-1.9h-.2c-.1.5-.2 1.2-.9 1.2H5.6V93s3.1-.1 4.1 0c1.1.1 1.2.7 1.2 1.4h.5v-2.5c0-.1-.2-.2-.2-.2-2.9 0-6 .2-8.9 0v.5c.5 0 1.5.1 1.5.7v12.3c0 .2-.6.7-1.1.7v.5c2.7-.1 5.8-.1 8.4 0h3.6l-.1-.3zM19 94.4c.6 1.4 1.1 2.7 1.7 4.5h-3.8c.6-1.6 1.2-2.9 2.1-4.5M34.6 73.6c-.2-.7-1.9-1.4-2.2-1.2-1.1.5-2.2 1.4-3.1 2.5-.5 1.1 0 2.6.5 3.7-1.1 1.1-2.2 1.9-2.7 3.1-1.1 2.6 1.1 5.1 3.2 5.7 2 .6 3.8-.2 5.2-1.4.2-.1.5-.2.6-.2.2.1 1.1.7 2.1 1.2 1.7.9 2.6-.5 3.7-1.1v-.2c-1.7.7-3.3-.5-4.5-1.4.6-.9 1.2-2.5 1.4-4l2.6.1.1-1.1H36l-.7.9c.7-.1 1.7.5 2 1.2.2.9 0 1.9-.5 2.5-1.9-1.5-4-3.3-5.2-5.8 1.1-1.3 3.6-2.3 3-4.5m.9 11.8c-.7 1.1-2.6.9-3.8.6-1.2-.2-2.5-1.4-3.1-2.5-.9-2 1.4-4.1 1.4-4.1 1.9 1.9 3.4 4.1 5.5 6m-4.1-8c-.7-.6-1.2-3.2.2-3.8.6-.2 1.5.1 1.5.7.1.7-.2 1.7-.7 2.1l-1 1zM-41.9 92.7c1.1.2.2 1.9 1.4 2.1.1 0 .2 0 .2 0v-2.9c-4.1-1.1-9.4-.9-11.9 3.1-1.5 2.6-1.2 6.7.9 9.1 2.5 2.7 6.6 2.9 9.9 2 .6-.1.7-.6.9-1.1-1.9.6-3.3 1.1-5.7.6-2.2-.5-4.1-2.2-4.7-4.5-.9-2.5-.6-5.7 1.2-7.4 2.1-1.8 5.3-1.8 7.8-1M-3.7 105.2V92.9s.6-.1 3.7 0c.6 0 1.1.5 1.2 1.1h.2l-.1-2.2c-2 .1-4 .1-6 .1s-4 0-6-.1l-.1 2.2h.2c.1-.7.6-1.1 1.2-1.1 2.9-.1 3.7 0 3.7 0v12.3c0 .7-.9.6-1.5.7v.5h5v-.4c-.5-.2-1.4.1-1.5-.8M52.2 105.8c-2.1-3.2-2.9-4.6-4.6-7.3 1.4-2.1 2.6-4 4.2-6.1.1-.2.9 0 .6-.5h-1.7c-1.2 2-2.5 4-3.8 5.7-.7-1.4-1.5-3.1-2.5-4.6-.6-.9-1.9-1.4-3.3-1.1v.5c.5 0 .7.1 1.5.9.9 1.2 2.1 3.7 3.5 6-1.7 2.6-3.3 5-5.2 7.4H42c1.5-2.2 2.9-4.5 4.5-6.4 1.5 2 2.6 4.2 4 6.4H53c.1-.9-.5-.4-.8-.9M53.9 104.7c0 1.1.7 1.9 1.9 1.9s1.9-.7 1.9-1.9c0-1.1-.7-1.9-1.9-1.9-1 .1-1.9.9-1.9 1.9m.3 0c0-.9.7-1.7 1.7-1.7.9 0 1.7.7 1.7 1.7s-.7 1.7-1.7 1.7c-1.1-.1-1.7-.8-1.7-1.7"/><path fill="#455560" d="M55.3 103.8h.7c.1 0 .5 0 .5.2s-.1.2-.5.2h-.6v-.6l-.1.2zm0 1.2h.7c.2 0 .2.1.2.2s0 .5 0 .5h.2c-.1 0-.1-.1-.1-.1v-.4c0-.2-.1-.2-.2-.5.1-.1.2-.1.2-.5 0-.5-.2-.6-.7-.6h-.9v2.2h.2v-.8h.4z"/></svg>